<?xml version="1.0" encoding="UTF-8" standalone="no"?>
<!DOCTYPE svg PUBLIC "-//W3C//DTD SVG 1.1//EN"
 "http://www.w3.org/Graphics/SVG/1.1/DTD/svg11.dtd">
<!-- Generated by graphviz version 2.40.1 (20161225.0304)
 -->
<!-- Title: test Pages: 1 -->
<svg width="1762pt" height="458pt"
 viewBox="0.00 0.00 1762.00 457.96" xmlns="http://www.w3.org/2000/svg" xmlns:xlink="http://www.w3.org/1999/xlink">
<g id="graph0" class="graph" transform="scale(1 1) rotate(0) translate(4 453.9605)">
<title>test</title>
<polygon fill="#ffffff" stroke="transparent" points="-4,4 -4,-453.9605 1758,-453.9605 1758,4 -4,4"/>
<g id="clust2" class="cluster">
<title>cluster_user</title>
<polygon fill="#e6f2ff" stroke="#7598bd" points="846,-8 846,-441.9605 1746,-441.9605 1746,-8 846,-8"/>
<text text-anchor="middle" x="1296" y="-426.7605" font-family="Times,serif" font-size="14.00" fill="#000000">user</text>
</g>
<g id="clust3" class="cluster">
<title>cluster_pid</title>
<polygon fill="#e6ffe6" stroke="#85ad85" points="8,-169.7401 8,-441.9605 838,-441.9605 838,-169.7401 8,-169.7401"/>
<text text-anchor="middle" x="423" y="-426.7605" font-family="Times,serif" font-size="14.00" fill="#000000">PID</text>
</g>
<!-- pid&#45;4026531836 -->
<g id="node1" class="node">
<title>pid&#45;4026531836</title>
<ellipse fill="#ffffff" stroke="#000000" cx="312" cy="-384.0904" rx="80.7205" ry="26.7407"/>
<text text-anchor="middle" x="312" y="-387.8904" font-family="Times,serif" font-size="14.00" fill="#000000">&quot;init&quot;</text>
<text text-anchor="middle" x="312" y="-372.8904" font-family="Times,serif" font-size="14.00" fill="#000000">pid:[4026531836]</text>
</g>
<!-- user&#45;4026531837 -->
<g id="node2" class="node">
<title>user&#45;4026531837</title>
<ellipse fill="#ffffff" stroke="#000000" cx="1296" cy="-384.0904" rx="84.2917" ry="26.7407"/>
<text text-anchor="middle" x="1296" y="-387.8904" font-family="Times,serif" font-size="14.00" fill="#000000">&quot;init&quot;</text>
<text text-anchor="middle" x="1296" y="-372.8904" font-family="Times,serif" font-size="14.00" fill="#000000">user:[4026531837]</text>
</g>
<!-- pid&#45;4026531836&#45;&gt;user&#45;4026531837 -->
<g id="edge10" class="edge">
<title>pid&#45;4026531836&#45;&gt;user&#45;4026531837</title>
<path fill="none" stroke="#000000" stroke-dasharray="5,2" d="M392.7188,-384.0904C662.266,-384.0904 931.8132,-384.0904 1201.3605,-384.0904"/>
<polygon fill="#000000" stroke="#000000" points="1201.7585,-387.5905 1211.7584,-384.0904 1201.7584,-380.5905 1201.7585,-387.5905"/>
</g>
<!-- pid&#45;4026532532 -->
<g id="node12" class="node">
<title>pid&#45;4026532532</title>
<ellipse fill="#ffffff" stroke="#000000" cx="187" cy="-294.3503" rx="80.7205" ry="26.7407"/>
<text text-anchor="middle" x="187" y="-298.1503" font-family="Times,serif" font-size="14.00" fill="#000000">&quot;sh&quot;</text>
<text text-anchor="middle" x="187" y="-283.1503" font-family="Times,serif" font-size="14.00" fill="#000000">pid:[4026532532]</text>
</g>
<!-- pid&#45;4026531836&#45;&gt;pid&#45;4026532532 -->
<g id="edge11" class="edge">
<title>pid&#45;4026531836&#45;&gt;pid&#45;4026532532</title>
<path fill="none" stroke="#000000" d="M269.3249,-353.453C253.5932,-342.159 235.9922,-329.5228 221.1155,-318.8425"/>
<polygon fill="#000000" stroke="#000000" points="267.6787,-356.5797 277.8432,-359.5685 271.761,-350.8934 267.6787,-356.5797"/>
</g>
<!-- pid&#45;4026532468 -->
<g id="node13" class="node">
<title>pid&#45;4026532468</title>
<ellipse fill="#ffffff" stroke="#000000" cx="437" cy="-294.3503" rx="151.1419" ry="26.7407"/>
<text text-anchor="middle" x="437" y="-298.1503" font-family="Times,serif" font-size="14.00" fill="#000000">&quot;chromium&#45;browser &#45;&#45;type=zygote&quot;</text>
<text text-anchor="middle" x="437" y="-283.1503" font-family="Times,serif" font-size="14.00" fill="#000000">pid:[4026532468]</text>
</g>
<!-- pid&#45;4026531836&#45;&gt;pid&#45;4026532468 -->
<g id="edge13" class="edge">
<title>pid&#45;4026531836&#45;&gt;pid&#45;4026532468</title>
<path fill="none" stroke="#000000" d="M354.6608,-353.4633C369.4792,-342.8249 385.9577,-330.9947 400.2562,-320.7294"/>
<polygon fill="#000000" stroke="#000000" points="352.239,-350.8934 346.1568,-359.5685 356.3213,-356.5797 352.239,-350.8934"/>
</g>
<!-- user&#45;4026532465 -->
<g id="node3" class="node">
<title>user&#45;4026532465</title>
<ellipse fill="#ffffff" stroke="#000000" cx="938" cy="-294.3503" rx="84.2917" ry="26.7407"/>
<text text-anchor="middle" x="938" y="-298.1503" font-family="Times,serif" font-size="14.00" fill="#000000">&quot;firefox&quot;</text>
<text text-anchor="middle" x="938" y="-283.1503" font-family="Times,serif" font-size="14.00" fill="#000000">user:[4026532465]</text>
</g>
<!-- user&#45;4026531837&#45;&gt;user&#45;4026532465 -->
<g id="edge1" class="edge">
<title>user&#45;4026531837&#45;&gt;user&#45;4026532465</title>
<path fill="none" stroke="#000000" d="M1216.8853,-366.3735C1164.0808,-354.2902 1093.186,-337.5704 1031,-321.2203 1020.9226,-318.5708 1010.2716,-315.6286 999.9158,-312.6908"/>
<polygon fill="#000000" stroke="#000000" points="1216.3341,-369.8377 1226.8623,-368.6507 1217.8918,-363.0132 1216.3341,-369.8377"/>
</g>
<!-- user&#45;4026532523 -->
<g id="node4" class="node">
<title>user&#45;4026532523</title>
<ellipse fill="#ffffff" stroke="#000000" cx="1117" cy="-294.3503" rx="77.1866" ry="18"/>
<text text-anchor="middle" x="1117" y="-290.6503" font-family="Times,serif" font-size="14.00" fill="#000000">user:[4026532523]</text>
</g>
<!-- user&#45;4026531837&#45;&gt;user&#45;4026532523 -->
<g id="edge2" class="edge">
<title>user&#45;4026531837&#45;&gt;user&#45;4026532523</title>
<path fill="none" stroke="#000000" d="M1241.3069,-356.6705C1211.4173,-341.6856 1175.3926,-323.6249 1149.8371,-310.8129"/>
<polygon fill="#000000" stroke="#000000" points="1239.8595,-359.86 1250.3676,-361.213 1242.9967,-353.6024 1239.8595,-359.86"/>
</g>
<!-- user&#45;4026532699 -->
<g id="node8" class="node">
<title>user&#45;4026532699</title>
<ellipse fill="#ffffff" stroke="#000000" cx="1296" cy="-294.3503" rx="84.2917" ry="26.7407"/>
<text text-anchor="middle" x="1296" y="-298.1503" font-family="Times,serif" font-size="14.00" fill="#000000">&quot;firefox&quot;</text>
<text text-anchor="middle" x="1296" y="-283.1503" font-family="Times,serif" font-size="14.00" fill="#000000">user:[4026532699]</text>
</g>
<!-- user&#45;4026531837&#45;&gt;user&#45;4026532699 -->
<g id="edge6" class="edge">
<title>user&#45;4026531837&#45;&gt;user&#45;4026532699</title>
<path fill="none" stroke="#000000" d="M1296,-346.9441C1296,-338.3326 1296,-329.3298 1296,-321.2563"/>
<polygon fill="#000000" stroke="#000000" points="1292.5001,-347.1654 1296,-357.1654 1299.5001,-347.1654 1292.5001,-347.1654"/>
</g>
<!-- user&#45;4026532868 -->
<g id="node9" class="node">
<title>user&#45;4026532868</title>
<ellipse fill="#ffffff" stroke="#000000" cx="1482" cy="-294.3503" rx="84.2917" ry="26.7407"/>
<text text-anchor="middle" x="1482" y="-298.1503" font-family="Times,serif" font-size="14.00" fill="#000000">&quot;firefox&quot;</text>
<text text-anchor="middle" x="1482" y="-283.1503" font-family="Times,serif" font-size="14.00" fill="#000000">user:[4026532868]</text>
</g>
<!-- user&#45;4026531837&#45;&gt;user&#45;4026532868 -->
<g id="edge7" class="edge">
<title>user&#45;4026531837&#45;&gt;user&#45;4026532868</title>
<path fill="none" stroke="#000000" d="M1351.6861,-357.2233C1378.4145,-344.3276 1410.0724,-329.0535 1435.4917,-316.7893"/>
<polygon fill="#000000" stroke="#000000" points="1349.9415,-354.1789 1342.4559,-361.6767 1352.9833,-360.4835 1349.9415,-354.1789"/>
</g>
<!-- user&#45;4026532467 -->
<g id="node10" class="node">
<title>user&#45;4026532467</title>
<ellipse fill="#ffffff" stroke="#000000" cx="1661" cy="-294.3503" rx="77.1866" ry="18"/>
<text text-anchor="middle" x="1661" y="-290.6503" font-family="Times,serif" font-size="14.00" fill="#000000">user:[4026532467]</text>
</g>
<!-- user&#45;4026531837&#45;&gt;user&#45;4026532467 -->
<g id="edge8" class="edge">
<title>user&#45;4026531837&#45;&gt;user&#45;4026532467</title>
<path fill="none" stroke="#000000" d="M1377.0458,-367.6451C1432.9557,-355.8568 1508.8388,-338.9791 1575,-321.2203 1588.4457,-317.6113 1602.9369,-313.264 1616.1214,-309.128"/>
<polygon fill="#000000" stroke="#000000" points="1376.2651,-364.2326 1367.1975,-369.7125 1377.7033,-371.0833 1376.2651,-364.2326"/>
</g>
<!-- user&#45;4026532524 -->
<g id="node5" class="node">
<title>user&#45;4026532524</title>
<ellipse fill="#ffffff" stroke="#000000" cx="1117" cy="-204.6102" rx="77.1866" ry="18"/>
<text text-anchor="middle" x="1117" y="-200.9102" font-family="Times,serif" font-size="14.00" fill="#000000">user:[4026532524]</text>
</g>
<!-- user&#45;4026532523&#45;&gt;user&#45;4026532524 -->
<g id="edge3" class="edge">
<title>user&#45;4026532523&#45;&gt;user&#45;4026532524</title>
<path fill="none" stroke="#000000" d="M1117,-265.9805C1117,-251.8335 1117,-235.1441 1117,-222.7434"/>
<polygon fill="#000000" stroke="#000000" points="1113.5001,-266.19 1117,-276.19 1120.5001,-266.1901 1113.5001,-266.19"/>
</g>
<!-- user&#45;4026532525 -->
<g id="node6" class="node">
<title>user&#45;4026532525</title>
<ellipse fill="#ffffff" stroke="#000000" cx="1117" cy="-123.7401" rx="77.1866" ry="18"/>
<text text-anchor="middle" x="1117" y="-120.0401" font-family="Times,serif" font-size="14.00" fill="#000000">user:[4026532525]</text>
</g>
<!-- user&#45;4026532524&#45;&gt;user&#45;4026532525 -->
<g id="edge4" class="edge">
<title>user&#45;4026532524&#45;&gt;user&#45;4026532525</title>
<path fill="none" stroke="#000000" d="M1117,-175.9719C1117,-164.6765 1117,-152.0351 1117,-142.0182"/>
<polygon fill="#000000" stroke="#000000" points="1113.5001,-176.2595 1117,-186.2595 1120.5001,-176.2595 1113.5001,-176.2595"/>
</g>
<!-- user&#45;4026532526 -->
<g id="node7" class="node">
<title>user&#45;4026532526</title>
<ellipse fill="#ffffff" stroke="#000000" cx="1117" cy="-42.8701" rx="84.2917" ry="26.7407"/>
<text text-anchor="middle" x="1117" y="-46.6701" font-family="Times,serif" font-size="14.00" fill="#000000">&quot;bash&quot;</text>
<text text-anchor="middle" x="1117" y="-31.6701" font-family="Times,serif" font-size="14.00" fill="#000000">user:[4026532526]</text>
</g>
<!-- user&#45;4026532525&#45;&gt;user&#45;4026532526 -->
<g id="edge5" class="edge">
<title>user&#45;4026532525&#45;&gt;user&#45;4026532526</title>
<path fill="none" stroke="#000000" d="M1117,-95.3673C1117,-87.0431 1117,-77.9682 1117,-69.7407"/>
<polygon fill="#000000" stroke="#000000" points="1113.5001,-95.3894 1117,-105.3894 1120.5001,-95.3895 1113.5001,-95.3894"/>
</g>
<!-- user&#45;4026532589 -->
<g id="node11" class="node">
<title>user&#45;4026532589</title>
<ellipse fill="#ffffff" stroke="#000000" cx="1587" cy="-204.6102" rx="151.1419" ry="26.7407"/>
<text text-anchor="middle" x="1587" y="-208.4102" font-family="Times,serif" font-size="14.00" fill="#000000">&quot;chromium&#45;browser &#45;&#45;type=zygote&quot;</text>
<text text-anchor="middle" x="1587" y="-193.4102" font-family="Times,serif" font-size="14.00" fill="#000000">user:[4026532589]</text>
</g>
<!-- user&#45;4026532467&#45;&gt;user&#45;4026532589 -->
<g id="edge9" class="edge">
<title>user&#45;4026532467&#45;&gt;user&#45;4026532589</title>
<path fill="none" stroke="#000000" d="M1639.7582,-268.5902C1630.1775,-256.9717 1618.8633,-243.2509 1609.1742,-231.501"/>
<polygon fill="#000000" stroke="#000000" points="1637.3176,-271.132 1646.38,-276.6205 1642.7183,-266.6786 1637.3176,-271.132"/>
</g>
<!-- pid&#45;4026532532&#45;&gt;user&#45;4026531837 -->
<g id="edge12" class="edge">
<title>pid&#45;4026532532&#45;&gt;user&#45;4026531837</title>
<path fill="none" stroke="#000000" stroke-dasharray="5,2" d="M244.1434,-313.5364C254.9522,-316.5572 266.2432,-319.3087 277,-321.2203 299.6453,-325.2447 955.8157,-364.0947 1203.0083,-378.6345"/>
<polygon fill="#000000" stroke="#000000" points="1202.8609,-382.1318 1213.0491,-379.2249 1203.2719,-375.1438 1202.8609,-382.1318"/>
</g>
<!-- pid&#45;4026532468&#45;&gt;user&#45;4026532467 -->
<g id="edge14" class="edge">
<title>pid&#45;4026532468&#45;&gt;user&#45;4026532467</title>
<path fill="none" stroke="#000000" stroke-dasharray="5,2" d="M556.7418,-310.7876C639.2641,-321.265 751.5574,-333.8472 851,-339.2203 1009.6575,-347.793 1410.9626,-373.992 1566,-339.2203 1586.2731,-334.6735 1607.3131,-325.2896 1624.424,-316.2733"/>
<polygon fill="#000000" stroke="#000000" points="1626.3863,-319.1902 1633.496,-311.3351 1623.0396,-313.042 1626.3863,-319.1902"/>
</g>
<!-- pid&#45;4026532464 -->
<g id="node14" class="node">
<title>pid&#45;4026532464</title>
<ellipse fill="#ffffff" stroke="#000000" cx="111" cy="-204.6102" rx="94.5053" ry="26.7407"/>
<text text-anchor="middle" x="111" y="-208.4102" font-family="Times,serif" font-size="14.00" fill="#000000">&quot;chromium&#45;browser&quot;</text>
<text text-anchor="middle" x="111" y="-193.4102" font-family="Times,serif" font-size="14.00" fill="#000000">pid:[4026532464]</text>
</g>
<!-- pid&#45;4026532468&#45;&gt;pid&#45;4026532464 -->
<g id="edge15" class="edge">
<title>pid&#45;4026532468&#45;&gt;pid&#45;4026532464</title>
<path fill="none" stroke="#000000" d="M345.0467,-269.0377C292.3487,-254.5312 227.3327,-236.6338 179.21,-223.3868"/>
<polygon fill="#000000" stroke="#000000" points="344.1661,-272.4254 354.7364,-271.7051 346.024,-265.6765 344.1661,-272.4254"/>
</g>
<!-- pid&#45;4026532466 -->
<g id="node15" class="node">
<title>pid&#45;4026532466</title>
<ellipse fill="#ffffff" stroke="#000000" cx="319" cy="-204.6102" rx="94.5053" ry="26.7407"/>
<text text-anchor="middle" x="319" y="-208.4102" font-family="Times,serif" font-size="14.00" fill="#000000">&quot;chromium&#45;browser&quot;</text>
<text text-anchor="middle" x="319" y="-193.4102" font-family="Times,serif" font-size="14.00" fill="#000000">pid:[4026532466]</text>
</g>
<!-- pid&#45;4026532468&#45;&gt;pid&#45;4026532466 -->
<g id="edge17" class="edge">
<title>pid&#45;4026532468&#45;&gt;pid&#45;4026532466</title>
<path fill="none" stroke="#000000" d="M394.58,-262.0894C380.7358,-251.5608 365.566,-240.0241 352.4738,-230.0673"/>
<polygon fill="#000000" stroke="#000000" points="392.4739,-264.8849 402.5523,-268.1525 396.7113,-259.3132 392.4739,-264.8849"/>
</g>
<!-- pid&#45;4026532590 -->
<g id="node16" class="node">
<title>pid&#45;4026532590</title>
<ellipse fill="#ffffff" stroke="#000000" cx="527" cy="-204.6102" rx="94.5053" ry="26.7407"/>
<text text-anchor="middle" x="527" y="-208.4102" font-family="Times,serif" font-size="14.00" fill="#000000">&quot;chromium&#45;browser&quot;</text>
<text text-anchor="middle" x="527" y="-193.4102" font-family="Times,serif" font-size="14.00" fill="#000000">pid:[4026532590]</text>
</g>
<!-- pid&#45;4026532468&#45;&gt;pid&#45;4026532590 -->
<g id="edge19" class="edge">
<title>pid&#45;4026532468&#45;&gt;pid&#45;4026532590</title>
<path fill="none" stroke="#000000" d="M471.3408,-260.1086C481.1635,-250.3143 491.7052,-239.8031 500.9437,-230.5912"/>
<polygon fill="#000000" stroke="#000000" points="468.613,-257.886 464.003,-267.4253 473.5556,-262.8429 468.613,-257.886"/>
</g>
<!-- pid&#45;4026532591 -->
<g id="node17" class="node">
<title>pid&#45;4026532591</title>
<ellipse fill="#ffffff" stroke="#000000" cx="735" cy="-204.6102" rx="94.5053" ry="26.7407"/>
<text text-anchor="middle" x="735" y="-208.4102" font-family="Times,serif" font-size="14.00" fill="#000000">&quot;chromium&#45;browser&quot;</text>
<text text-anchor="middle" x="735" y="-193.4102" font-family="Times,serif" font-size="14.00" fill="#000000">pid:[4026532591]</text>
</g>
<!-- pid&#45;4026532468&#45;&gt;pid&#45;4026532591 -->
<g id="edge21" class="edge">
<title>pid&#45;4026532468&#45;&gt;pid&#45;4026532591</title>
<path fill="none" stroke="#000000" d="M523.9163,-268.1762C570.5196,-254.142 626.9906,-237.1363 669.7926,-224.2468"/>
<polygon fill="#000000" stroke="#000000" points="522.696,-264.8884 514.13,-271.1233 524.7145,-271.591 522.696,-264.8884"/>
</g>
<!-- pid&#45;4026532464&#45;&gt;user&#45;4026532589 -->
<g id="edge16" class="edge">
<title>pid&#45;4026532464&#45;&gt;user&#45;4026532589</title>
<path fill="none" stroke="#000000" stroke-dasharray="5,2" d="M158.1835,-227.9663C177.9991,-236.5423 201.6092,-245.1974 224,-249.4802 329.8587,-269.7285 1086.3963,-255.6031 1194,-249.4802 1282.909,-244.4212 1382.5861,-232.974 1459.3083,-222.9086"/>
<polygon fill="#000000" stroke="#000000" points="1460.0451,-226.3418 1469.5005,-221.562 1459.1282,-219.4021 1460.0451,-226.3418"/>
</g>
<!-- pid&#45;4026532466&#45;&gt;user&#45;4026532589 -->
<g id="edge18" class="edge">
<title>pid&#45;4026532466&#45;&gt;user&#45;4026532589</title>
<path fill="none" stroke="#000000" stroke-dasharray="5,2" d="M366.1835,-227.9663C385.9991,-236.5423 409.6092,-245.1974 432,-249.4802 598.3182,-281.2929 1024.9401,-259.1 1194,-249.4802 1282.909,-244.4212 1382.5861,-232.974 1459.3083,-222.9086"/>
<polygon fill="#000000" stroke="#000000" points="1460.0451,-226.3418 1469.5005,-221.562 1459.1282,-219.4021 1460.0451,-226.3418"/>
</g>
<!-- pid&#45;4026532590&#45;&gt;user&#45;4026532589 -->
<g id="edge20" class="edge">
<title>pid&#45;4026532590&#45;&gt;user&#45;4026532589</title>
<path fill="none" stroke="#000000" stroke-dasharray="5,2" d="M574.1835,-227.9663C593.9991,-236.5423 617.6092,-245.1974 640,-249.4802 760.919,-272.6092 1071.0877,-256.4742 1194,-249.4802 1282.909,-244.4212 1382.5861,-232.974 1459.3083,-222.9086"/>
<polygon fill="#000000" stroke="#000000" points="1460.0451,-226.3418 1469.5005,-221.562 1459.1282,-219.4021 1460.0451,-226.3418"/>
</g>
<!-- pid&#45;4026532591&#45;&gt;user&#45;4026532589 -->
<g id="edge22" class="edge">
<title>pid&#45;4026532591&#45;&gt;user&#45;4026532589</title>
<path fill="none" stroke="#000000" stroke-dasharray="5,2" d="M783.2147,-227.8508C803.6237,-236.4662 827.9694,-245.1812 851,-249.4802 1000.856,-277.4533 1041.8018,-258.1406 1194,-249.4802 1282.909,-244.4212 1382.5861,-232.974 1459.3083,-222.9086"/>
<polygon fill="#000000" stroke="#000000" points="1460.0451,-226.3418 1469.5005,-221.562 1459.1282,-219.4021 1460.0451,-226.3418"/>
</g>
</g>
</svg>
