<?xml version="1.0" encoding="UTF-8" standalone="no"?>
<!DOCTYPE svg PUBLIC "-//W3C//DTD SVG 1.1//EN"
 "http://www.w3.org/Graphics/SVG/1.1/DTD/svg11.dtd">
<!-- Generated by graphviz version 2.40.1 (20161225.0304)
 -->
<!-- Title: test Pages: 1 -->
<svg width="1729pt" height="387pt"
 viewBox="0.00 0.00 1729.00 387.00" xmlns="http://www.w3.org/2000/svg" xmlns:xlink="http://www.w3.org/1999/xlink">
<g id="graph0" class="graph" transform="scale(1 1) rotate(0) translate(4 383)">
<title>test</title>
<polygon fill="#ffffff" stroke="transparent" points="-4,4 -4,-383 1725,-383 1725,4 -4,4"/>
<g id="clust2" class="cluster">
<title>cluster_user</title>
<polygon fill="#e6f2ff" stroke="#7598bd" points="678,-8 678,-371 1713,-371 1713,-8 678,-8"/>
<text text-anchor="middle" x="1195.5" y="-355.8" font-family="Times,serif" font-size="14.00" fill="#000000">user</text>
</g>
<g id="clust3" class="cluster">
<title>cluster_pid</title>
<polygon fill="#e6ffe6" stroke="#85ad85" points="8,-152 8,-371 670,-371 670,-152 8,-152"/>
<text text-anchor="middle" x="339" y="-355.8" font-family="Times,serif" font-size="14.00" fill="#000000">PID</text>
</g>
<!-- pid&#45;4026531836 -->
<g id="node1" class="node">
<title>pid&#45;4026531836</title>
<ellipse fill="#ffffff" stroke="#000000" cx="256" cy="-322" rx="74.187" ry="18"/>
<text text-anchor="middle" x="256" y="-318.3" font-family="Times,serif" font-size="14.00" fill="#000000">pid:[4026531836]</text>
</g>
<!-- user&#45;4026531837 -->
<g id="node2" class="node">
<title>user&#45;4026531837</title>
<ellipse fill="#ffffff" stroke="#000000" cx="1195" cy="-322" rx="77.1866" ry="18"/>
<text text-anchor="middle" x="1195" y="-318.3" font-family="Times,serif" font-size="14.00" fill="#000000">user:[4026531837]</text>
</g>
<!-- pid&#45;4026531836&#45;&gt;user&#45;4026531837 -->
<g id="edge11" class="edge">
<title>pid&#45;4026531836&#45;&gt;user&#45;4026531837</title>
<path fill="none" stroke="#000000" stroke-dasharray="5,2" d="M330.2764,-322C589.1623,-322 848.0482,-322 1106.9341,-322"/>
<polygon fill="#000000" stroke="#000000" points="1107.31,-325.5001 1117.31,-322 1107.31,-318.5001 1107.31,-325.5001"/>
</g>
<!-- pid&#45;4026532532 -->
<g id="node13" class="node">
<title>pid&#45;4026532532</title>
<ellipse fill="#ffffff" stroke="#000000" cx="173" cy="-250" rx="74.187" ry="18"/>
<text text-anchor="middle" x="173" y="-246.3" font-family="Times,serif" font-size="14.00" fill="#000000">pid:[4026532532]</text>
</g>
<!-- pid&#45;4026531836&#45;&gt;pid&#45;4026532532 -->
<g id="edge12" class="edge">
<title>pid&#45;4026531836&#45;&gt;pid&#45;4026532532</title>
<path fill="none" stroke="#000000" d="M228.2678,-297.9431C216.7936,-287.9897 203.7359,-276.6625 193.1946,-267.5182"/>
<polygon fill="#000000" stroke="#000000" points="226.0606,-300.6619 235.908,-304.5708 230.6476,-295.3741 226.0606,-300.6619"/>
</g>
<!-- pid&#45;4026532650 -->
<g id="node14" class="node">
<title>pid&#45;4026532650</title>
<ellipse fill="#ffffff" stroke="#000000" cx="339" cy="-250" rx="74.187" ry="18"/>
<text text-anchor="middle" x="339" y="-246.3" font-family="Times,serif" font-size="14.00" fill="#000000">pid:[4026532650]</text>
</g>
<!-- pid&#45;4026531836&#45;&gt;pid&#45;4026532650 -->
<g id="edge14" class="edge">
<title>pid&#45;4026531836&#45;&gt;pid&#45;4026532650</title>
<path fill="none" stroke="#000000" d="M283.7322,-297.9431C295.2064,-287.9897 308.2641,-276.6625 318.8054,-267.5182"/>
<polygon fill="#000000" stroke="#000000" points="281.3524,-295.3741 276.092,-304.5708 285.9394,-300.6619 281.3524,-295.3741"/>
</g>
<!-- user&#45;4026532522 -->
<g id="node3" class="node">
<title>user&#45;4026532522</title>
<ellipse fill="#ffffff" stroke="#000000" cx="763" cy="-250" rx="77.1866" ry="18"/>
<text text-anchor="middle" x="763" y="-246.3" font-family="Times,serif" font-size="14.00" fill="#000000">user:[4026532522]</text>
</g>
<!-- user&#45;4026531837&#45;&gt;user&#45;4026532522 -->
<g id="edge1" class="edge">
<title>user&#45;4026531837&#45;&gt;user&#45;4026532522</title>
<path fill="none" stroke="#000000" d="M1118.6384,-311.1389C1048.6092,-300.9198 942.1026,-284.7256 850,-268 840.2875,-266.2362 829.9937,-264.2293 820.0163,-262.2111"/>
<polygon fill="#000000" stroke="#000000" points="1118.3001,-314.6265 1128.6998,-312.6027 1119.3079,-307.6994 1118.3001,-314.6265"/>
</g>
<!-- user&#45;4026532465 -->
<g id="node4" class="node">
<title>user&#45;4026532465</title>
<ellipse fill="#ffffff" stroke="#000000" cx="936" cy="-250" rx="77.1866" ry="18"/>
<text text-anchor="middle" x="936" y="-246.3" font-family="Times,serif" font-size="14.00" fill="#000000">user:[4026532465]</text>
</g>
<!-- user&#45;4026531837&#45;&gt;user&#45;4026532465 -->
<g id="edge2" class="edge">
<title>user&#45;4026531837&#45;&gt;user&#45;4026532465</title>
<path fill="none" stroke="#000000" d="M1135.3659,-305.4222C1090.0588,-292.8271 1028.4671,-275.7052 985.7845,-263.8397"/>
<polygon fill="#000000" stroke="#000000" points="1134.4901,-308.8114 1145.0622,-308.1177 1136.365,-302.0671 1134.4901,-308.8114"/>
</g>
<!-- user&#45;4026532464 -->
<g id="node5" class="node">
<title>user&#45;4026532464</title>
<ellipse fill="#ffffff" stroke="#000000" cx="1109" cy="-250" rx="77.1866" ry="18"/>
<text text-anchor="middle" x="1109" y="-246.3" font-family="Times,serif" font-size="14.00" fill="#000000">user:[4026532464]</text>
</g>
<!-- user&#45;4026531837&#45;&gt;user&#45;4026532464 -->
<g id="edge3" class="edge">
<title>user&#45;4026531837&#45;&gt;user&#45;4026532464</title>
<path fill="none" stroke="#000000" d="M1166.2654,-297.9431C1154.3765,-287.9897 1140.8469,-276.6625 1129.9246,-267.5182"/>
<polygon fill="#000000" stroke="#000000" points="1164.2674,-300.8351 1174.1818,-304.5708 1168.761,-295.4677 1164.2674,-300.8351"/>
</g>
<!-- user&#45;4026532523 -->
<g id="node6" class="node">
<title>user&#45;4026532523</title>
<ellipse fill="#ffffff" stroke="#000000" cx="1282" cy="-250" rx="77.1866" ry="18"/>
<text text-anchor="middle" x="1282" y="-246.3" font-family="Times,serif" font-size="14.00" fill="#000000">user:[4026532523]</text>
</g>
<!-- user&#45;4026531837&#45;&gt;user&#45;4026532523 -->
<g id="edge4" class="edge">
<title>user&#45;4026531837&#45;&gt;user&#45;4026532523</title>
<path fill="none" stroke="#000000" d="M1224.0687,-297.9431C1236.0958,-287.9897 1249.7828,-276.6625 1260.8321,-267.5182"/>
<polygon fill="#000000" stroke="#000000" points="1221.5327,-295.4987 1216.0603,-304.5708 1225.9957,-300.8915 1221.5327,-295.4987"/>
</g>
<!-- user&#45;4026532589 -->
<g id="node10" class="node">
<title>user&#45;4026532589</title>
<ellipse fill="#ffffff" stroke="#000000" cx="1455" cy="-250" rx="77.1866" ry="18"/>
<text text-anchor="middle" x="1455" y="-246.3" font-family="Times,serif" font-size="14.00" fill="#000000">user:[4026532589]</text>
</g>
<!-- user&#45;4026531837&#45;&gt;user&#45;4026532589 -->
<g id="edge8" class="edge">
<title>user&#45;4026531837&#45;&gt;user&#45;4026532589</title>
<path fill="none" stroke="#000000" d="M1254.5517,-305.5088C1300.0202,-292.9175 1361.9619,-275.7644 1404.9031,-263.873"/>
<polygon fill="#000000" stroke="#000000" points="1253.5262,-302.1609 1244.823,-308.2029 1255.3944,-308.9071 1253.5262,-302.1609"/>
</g>
<!-- user&#45;4026532649 -->
<g id="node11" class="node">
<title>user&#45;4026532649</title>
<ellipse fill="#ffffff" stroke="#000000" cx="1628" cy="-250" rx="77.1866" ry="18"/>
<text text-anchor="middle" x="1628" y="-246.3" font-family="Times,serif" font-size="14.00" fill="#000000">user:[4026532649]</text>
</g>
<!-- user&#45;4026531837&#45;&gt;user&#45;4026532649 -->
<g id="edge9" class="edge">
<title>user&#45;4026531837&#45;&gt;user&#45;4026532649</title>
<path fill="none" stroke="#000000" d="M1271.2593,-311.1989C1341.4875,-300.9911 1448.4906,-284.7784 1541,-268 1550.7129,-266.2384 1561.0069,-264.2326 1570.9843,-262.2147"/>
<polygon fill="#000000" stroke="#000000" points="1270.5655,-307.7628 1261.1707,-312.6607 1271.5693,-314.6904 1270.5655,-307.7628"/>
</g>
<!-- user&#45;4026532524 -->
<g id="node7" class="node">
<title>user&#45;4026532524</title>
<ellipse fill="#ffffff" stroke="#000000" cx="1282" cy="-178" rx="77.1866" ry="18"/>
<text text-anchor="middle" x="1282" y="-174.3" font-family="Times,serif" font-size="14.00" fill="#000000">user:[4026532524]</text>
</g>
<!-- user&#45;4026532523&#45;&gt;user&#45;4026532524 -->
<g id="edge5" class="edge">
<title>user&#45;4026532523&#45;&gt;user&#45;4026532524</title>
<path fill="none" stroke="#000000" d="M1282,-221.5726C1282,-213.1084 1282,-204.0593 1282,-196.4133"/>
<polygon fill="#000000" stroke="#000000" points="1278.5001,-221.8313 1282,-231.8314 1285.5001,-221.8314 1278.5001,-221.8313"/>
</g>
<!-- user&#45;4026532525 -->
<g id="node8" class="node">
<title>user&#45;4026532525</title>
<ellipse fill="#ffffff" stroke="#000000" cx="1282" cy="-106" rx="77.1866" ry="18"/>
<text text-anchor="middle" x="1282" y="-102.3" font-family="Times,serif" font-size="14.00" fill="#000000">user:[4026532525]</text>
</g>
<!-- user&#45;4026532524&#45;&gt;user&#45;4026532525 -->
<g id="edge6" class="edge">
<title>user&#45;4026532524&#45;&gt;user&#45;4026532525</title>
<path fill="none" stroke="#000000" d="M1282,-149.5726C1282,-141.1084 1282,-132.0593 1282,-124.4133"/>
<polygon fill="#000000" stroke="#000000" points="1278.5001,-149.8313 1282,-159.8314 1285.5001,-149.8314 1278.5001,-149.8313"/>
</g>
<!-- user&#45;4026532526 -->
<g id="node9" class="node">
<title>user&#45;4026532526</title>
<ellipse fill="#ffffff" stroke="#000000" cx="1282" cy="-34" rx="77.1866" ry="18"/>
<text text-anchor="middle" x="1282" y="-30.3" font-family="Times,serif" font-size="14.00" fill="#000000">user:[4026532526]</text>
</g>
<!-- user&#45;4026532525&#45;&gt;user&#45;4026532526 -->
<g id="edge7" class="edge">
<title>user&#45;4026532525&#45;&gt;user&#45;4026532526</title>
<path fill="none" stroke="#000000" d="M1282,-77.5726C1282,-69.1084 1282,-60.0593 1282,-52.4133"/>
<polygon fill="#000000" stroke="#000000" points="1278.5001,-77.8313 1282,-87.8314 1285.5001,-77.8314 1278.5001,-77.8313"/>
</g>
<!-- user&#45;4026532760 -->
<g id="node12" class="node">
<title>user&#45;4026532760</title>
<ellipse fill="#ffffff" stroke="#000000" cx="1628" cy="-178" rx="77.1866" ry="18"/>
<text text-anchor="middle" x="1628" y="-174.3" font-family="Times,serif" font-size="14.00" fill="#000000">user:[4026532760]</text>
</g>
<!-- user&#45;4026532649&#45;&gt;user&#45;4026532760 -->
<g id="edge10" class="edge">
<title>user&#45;4026532649&#45;&gt;user&#45;4026532760</title>
<path fill="none" stroke="#000000" d="M1628,-221.5726C1628,-213.1084 1628,-204.0593 1628,-196.4133"/>
<polygon fill="#000000" stroke="#000000" points="1624.5001,-221.8313 1628,-231.8314 1631.5001,-221.8314 1624.5001,-221.8313"/>
</g>
<!-- pid&#45;4026532532&#45;&gt;user&#45;4026531837 -->
<g id="edge13" class="edge">
<title>pid&#45;4026532532&#45;&gt;user&#45;4026531837</title>
<path fill="none" stroke="#000000" stroke-dasharray="5,2" d="M225.9144,-262.7644C235.8616,-264.7965 246.2116,-266.6655 256,-268 419.2029,-290.2508 908.3289,-310.9676 1108.3325,-318.7497"/>
<polygon fill="#000000" stroke="#000000" points="1108.3714,-322.2537 1118.4995,-319.1438 1108.6426,-315.259 1108.3714,-322.2537"/>
</g>
<!-- pid&#45;4026532650&#45;&gt;user&#45;4026532649 -->
<g id="edge15" class="edge">
<title>pid&#45;4026532650&#45;&gt;user&#45;4026532649</title>
<path fill="none" stroke="#000000" stroke-dasharray="5,2" d="M403.8297,-258.8228C472.866,-267.7397 585.4041,-280.9071 683,-286 871.4103,-295.8318 1346.3608,-319.6628 1532,-286 1549.55,-282.8176 1568.0692,-276.611 1584.1101,-270.2352"/>
<polygon fill="#000000" stroke="#000000" points="1585.8314,-273.3117 1593.7467,-266.269 1583.1672,-266.8385 1585.8314,-273.3117"/>
</g>
<!-- pid&#45;4026532647 -->
<g id="node15" class="node">
<title>pid&#45;4026532647</title>
<ellipse fill="#ffffff" stroke="#000000" cx="90" cy="-178" rx="74.187" ry="18"/>
<text text-anchor="middle" x="90" y="-174.3" font-family="Times,serif" font-size="14.00" fill="#000000">pid:[4026532647]</text>
</g>
<!-- pid&#45;4026532650&#45;&gt;pid&#45;4026532647 -->
<g id="edge16" class="edge">
<title>pid&#45;4026532650&#45;&gt;pid&#45;4026532647</title>
<path fill="none" stroke="#000000" d="M281.4192,-233.3501C237.9258,-220.7737 178.9294,-203.7145 137.9775,-191.873"/>
<polygon fill="#000000" stroke="#000000" points="280.7062,-236.7873 291.2849,-236.2029 282.6507,-230.0628 280.7062,-236.7873"/>
</g>
<!-- pid&#45;4026532648 -->
<g id="node16" class="node">
<title>pid&#45;4026532648</title>
<ellipse fill="#ffffff" stroke="#000000" cx="256" cy="-178" rx="74.187" ry="18"/>
<text text-anchor="middle" x="256" y="-174.3" font-family="Times,serif" font-size="14.00" fill="#000000">pid:[4026532648]</text>
</g>
<!-- pid&#45;4026532650&#45;&gt;pid&#45;4026532648 -->
<g id="edge18" class="edge">
<title>pid&#45;4026532650&#45;&gt;pid&#45;4026532648</title>
<path fill="none" stroke="#000000" d="M311.2678,-225.9431C299.7936,-215.9897 286.7359,-204.6625 276.1946,-195.5182"/>
<polygon fill="#000000" stroke="#000000" points="309.0606,-228.6619 318.908,-232.5708 313.6476,-223.3741 309.0606,-228.6619"/>
</g>
<!-- pid&#45;4026532761 -->
<g id="node17" class="node">
<title>pid&#45;4026532761</title>
<ellipse fill="#ffffff" stroke="#000000" cx="422" cy="-178" rx="74.187" ry="18"/>
<text text-anchor="middle" x="422" y="-174.3" font-family="Times,serif" font-size="14.00" fill="#000000">pid:[4026532761]</text>
</g>
<!-- pid&#45;4026532650&#45;&gt;pid&#45;4026532761 -->
<g id="edge20" class="edge">
<title>pid&#45;4026532650&#45;&gt;pid&#45;4026532761</title>
<path fill="none" stroke="#000000" d="M366.7322,-225.9431C378.2064,-215.9897 391.2641,-204.6625 401.8054,-195.5182"/>
<polygon fill="#000000" stroke="#000000" points="364.3524,-223.3741 359.092,-232.5708 368.9394,-228.6619 364.3524,-223.3741"/>
</g>
<!-- pid&#45;4026532762 -->
<g id="node18" class="node">
<title>pid&#45;4026532762</title>
<ellipse fill="#ffffff" stroke="#000000" cx="588" cy="-178" rx="74.187" ry="18"/>
<text text-anchor="middle" x="588" y="-174.3" font-family="Times,serif" font-size="14.00" fill="#000000">pid:[4026532762]</text>
</g>
<!-- pid&#45;4026532650&#45;&gt;pid&#45;4026532762 -->
<g id="edge22" class="edge">
<title>pid&#45;4026532650&#45;&gt;pid&#45;4026532762</title>
<path fill="none" stroke="#000000" d="M396.5808,-233.3501C440.0742,-220.7737 499.0706,-203.7145 540.0225,-191.873"/>
<polygon fill="#000000" stroke="#000000" points="395.3493,-230.0628 386.7151,-236.2029 397.2938,-236.7873 395.3493,-230.0628"/>
</g>
<!-- pid&#45;4026532647&#45;&gt;user&#45;4026532760 -->
<g id="edge17" class="edge">
<title>pid&#45;4026532647&#45;&gt;user&#45;4026532760</title>
<path fill="none" stroke="#000000" stroke-dasharray="5,2" d="M122.7559,-194.2648C139.9381,-201.8991 161.6065,-210.152 182,-214 310.5101,-238.2481 1228.5114,-222.6928 1359,-214 1425.913,-209.5424 1501.5706,-198.9138 1555.5668,-190.3538"/>
<polygon fill="#000000" stroke="#000000" points="1556.4079,-193.7638 1565.7288,-188.7268 1555.3011,-186.8519 1556.4079,-193.7638"/>
</g>
<!-- pid&#45;4026532648&#45;&gt;user&#45;4026532760 -->
<g id="edge19" class="edge">
<title>pid&#45;4026532648&#45;&gt;user&#45;4026532760</title>
<path fill="none" stroke="#000000" stroke-dasharray="5,2" d="M288.7559,-194.2648C305.9381,-201.8991 327.6065,-210.152 348,-214 458.3855,-234.8283 1246.9151,-221.4668 1359,-214 1425.913,-209.5424 1501.5706,-198.9138 1555.5668,-190.3538"/>
<polygon fill="#000000" stroke="#000000" points="1556.4079,-193.7638 1565.7288,-188.7268 1555.3011,-186.8519 1556.4079,-193.7638"/>
</g>
<!-- pid&#45;4026532761&#45;&gt;user&#45;4026532760 -->
<g id="edge21" class="edge">
<title>pid&#45;4026532761&#45;&gt;user&#45;4026532760</title>
<path fill="none" stroke="#000000" stroke-dasharray="5,2" d="M454.7559,-194.2648C471.9381,-201.8991 493.6065,-210.152 514,-214 606.2609,-231.4084 1265.3188,-220.2408 1359,-214 1425.913,-209.5424 1501.5706,-198.9138 1555.5668,-190.3538"/>
<polygon fill="#000000" stroke="#000000" points="1556.4079,-193.7638 1565.7288,-188.7268 1555.3011,-186.8519 1556.4079,-193.7638"/>
</g>
<!-- pid&#45;4026532762&#45;&gt;user&#45;4026532760 -->
<g id="edge23" class="edge">
<title>pid&#45;4026532762&#45;&gt;user&#45;4026532760</title>
<path fill="none" stroke="#000000" stroke-dasharray="5,2" d="M621.4399,-194.0789C639.2664,-201.7664 661.8341,-210.1241 683,-214 830.7651,-241.0588 1209.11,-223.9853 1359,-214 1425.913,-209.5424 1501.5706,-198.9138 1555.5668,-190.3538"/>
<polygon fill="#000000" stroke="#000000" points="1556.4079,-193.7638 1565.7288,-188.7268 1555.3011,-186.8519 1556.4079,-193.7638"/>
</g>
</g>
</svg>
