<?xml version="1.0" encoding="UTF-8" standalone="no"?>
<svg
   xmlns:dc="http://purl.org/dc/elements/1.1/"
   xmlns:cc="http://creativecommons.org/ns#"
   xmlns:rdf="http://www.w3.org/1999/02/22-rdf-syntax-ns#"
   xmlns:svg="http://www.w3.org/2000/svg"
   xmlns="http://www.w3.org/2000/svg"
   xmlns:sodipodi="http://sodipodi.sourceforge.net/DTD/sodipodi-0.dtd"
   xmlns:inkscape="http://www.inkscape.org/namespaces/inkscape"
   width="16"
   height="16"
   viewBox="0 0 16 16"
   version="1.1"
   id="svg4"
   sodipodi:docname="linuxnsrel.svg"
   inkscape:version="0.92.3 (2405546, 2018-03-11)">
  <metadata
     id="metadata10">
    <rdf:RDF>
      <cc:Work
         rdf:about="">
        <dc:format>image/svg+xml</dc:format>
        <dc:type
           rdf:resource="http://purl.org/dc/dcmitype/StillImage" />
      </cc:Work>
    </rdf:RDF>
  </metadata>
  <defs
     id="defs8" />
  <sodipodi:namedview
     pagecolor="#ffffff"
     bordercolor="#666666"
     borderopacity="1"
     objecttolerance="10"
     gridtolerance="10"
     guidetolerance="10"
     inkscape:pageopacity="0"
     inkscape:pageshadow="2"
     inkscape:window-width="1599"
     inkscape:window-height="1076"
     id="namedview6"
     showgrid="true"
     inkscape:zoom="41.7193"
     inkscape:cx="7.1431066"
     inkscape:cy="8.3134395"
     inkscape:window-x="284"
     inkscape:window-y="197"
     inkscape:window-maximized="0"
     inkscape:current-layer="svg4"
     inkscape:snap-bbox="true"
     inkscape:bbox-paths="true"
     inkscape:bbox-nodes="true"
     inkscape:snap-bbox-edge-midpoints="true"
     inkscape:snap-bbox-midpoints="true">
    <inkscape:grid
       type="xygrid"
       id="grid12" />
  </sodipodi:namedview>
  <path
     style="color:#000000;font-style:normal;font-variant:normal;font-weight:normal;font-stretch:normal;font-size:medium;line-height:normal;font-family:sans-serif;font-variant-ligatures:normal;font-variant-position:normal;font-variant-caps:normal;font-variant-numeric:normal;font-variant-alternates:normal;font-feature-settings:normal;text-indent:0;text-align:start;text-decoration:none;text-decoration-line:none;text-decoration-style:solid;text-decoration-color:#000000;letter-spacing:normal;word-spacing:normal;text-transform:none;writing-mode:lr-tb;direction:ltr;text-orientation:mixed;dominant-baseline:auto;baseline-shift:baseline;text-anchor:start;white-space:normal;shape-padding:0;clip-rule:nonzero;display:inline;overflow:visible;visibility:visible;opacity:1;isolation:auto;mix-blend-mode:normal;color-interpolation:sRGB;color-interpolation-filters:linearRGB;solid-color:#000000;solid-opacity:1;vector-effect:none;fill:#febf10;fill-opacity:1;fill-rule:nonzero;stroke:none;stroke-width:1;stroke-linecap:square;stroke-linejoin:miter;stroke-miterlimit:4;stroke-dasharray:none;stroke-dashoffset:0;stroke-opacity:1;marker:none;paint-order:normal;color-rendering:auto;image-rendering:auto;shape-rendering:auto;text-rendering:auto;enable-background:accumulate"
     d="M 6 1 C 4.3490681 1 3 2.3490681 3 4 C 3 5.1945573 3.7106639 6.2233031 4.7265625 6.7050781 L 3.9960938 9 C 2.3469681 9.0021588 1 10.35039 1 12 C 1 13.650932 2.3490681 15 4 15 C 5.6509319 15 7 13.650932 7 12 C 7 10.69648 6.1548764 9.5913725 4.9882812 9.1796875 L 5.6914062 6.96875 C 5.7941965 6.9795011 5.8944694 7 6 7 C 6.5153049 7 6.9933267 6.8560211 7.4179688 6.625 L 9.8691406 9.8964844 C 9.3335691 10.438973 9 11.18151 9 12 C 9 13.650932 10.349068 15 12 15 C 13.650932 15 15 13.650932 15 12 C 15 10.349068 13.650932 9 12 9 C 11.526169 9 11.082936 9.1208617 10.683594 9.3183594 L 8.2070312 6.0117188 C 8.6942168 5.4778911 9 4.7758404 9 4 C 9 2.3490681 7.6509319 1 6 1 z M 6 2 C 7.1104918 2 8 2.8895082 8 4 C 8 5.1104918 7.1104918 6 6 6 C 4.8895082 6 4 5.1104918 4 4 C 4 2.8895082 4.8895082 2 6 2 z M 4 10 C 5.1104918 10 6 10.889508 6 12 C 6 13.110492 5.1104918 14 4 14 C 2.8895082 14 2 13.110492 2 12 C 2 10.889508 2.8895082 10 4 10 z M 12 10 C 13.110492 10 14 10.889508 14 12 C 14 13.110492 13.110492 14 12 14 C 10.889508 14 10 13.110492 10 12 C 10 10.889508 10.889508 10 12 10 z "
     id="path36" />
</svg>
